<svg xmlns="http://www.w3.org/2000/svg" width="362mm" height="179mm" viewBox="0 0 362 179">
<rect width="100%" height="100%" fill="white"/>
<text x="18" y="8" font-size="6" font-family="Arial" fill="#222">《夕妖：抢地盘》天地盖硬盒刀模参考图</text>
<text x="18" y="14" font-size="3.2" font-family="Arial" fill="#666">参考：无牌套内径约92×67×30mm；六面设计外径参考96×71×30mm；出血3mm。最终生产以工厂刀模为准。</text>
<text x="18" y="23" font-size="4" font-family="Arial" fill="#222">A. 盒盖展开参考：顶面 + 四侧边</text>
<rect x="15" y="28" width="162" height="137" fill="none" stroke="#e59696" stroke-width="0.25" stroke-dasharray="2 1.5"/>
<rect x="48" y="61" width="96" height="71" fill="#f8f4eb" stroke="#d22828" stroke-width="0.5"/>
<rect x="48" y="31" width="96" height="30" fill="#f5f7fc" stroke="#d22828" stroke-width="0.5"/>
<rect x="48" y="132" width="96" height="30" fill="#f5f7fc" stroke="#d22828" stroke-width="0.5"/>
<rect x="18" y="61" width="30" height="71" fill="#f5f7fc" stroke="#d22828" stroke-width="0.5"/>
<rect x="144" y="61" width="30" height="71" fill="#f5f7fc" stroke="#d22828" stroke-width="0.5"/>
<rect x="51" y="64" width="90" height="65" fill="none" stroke="#419641" stroke-width="0.3" stroke-dasharray="2 1.5"/>
<line x1="48" y1="61" x2="144" y2="61" stroke="#1e5abe" stroke-width="0.5" stroke-dasharray="2 1.5"/>
<line x1="48" y1="132" x2="144" y2="132" stroke="#1e5abe" stroke-width="0.5" stroke-dasharray="2 1.5"/>
<line x1="48" y1="61" x2="48" y2="132" stroke="#1e5abe" stroke-width="0.5" stroke-dasharray="2 1.5"/>
<line x1="144" y1="61" x2="144" y2="132" stroke="#1e5abe" stroke-width="0.5" stroke-dasharray="2 1.5"/>
<text x="96.0" y="96.5" font-size="3.5" text-anchor="middle" font-family="Arial" fill="#222">顶面 / 96×71mm</text>
<text x="194" y="23" font-size="4" font-family="Arial" fill="#222">B. 六个外露面的排版尺寸</text>
<rect x="194" y="31" width="96" height="71" fill="#f8f4eb" stroke="#d22828" stroke-width="0.5"/>
<rect x="194" y="112" width="96" height="71" fill="#f8f4eb" stroke="#d22828" stroke-width="0.5"/>
<rect x="298" y="31" width="96" height="30" fill="#f5f7fc" stroke="#d22828" stroke-width="0.5"/>
<rect x="298" y="67" width="96" height="30" fill="#f5f7fc" stroke="#d22828" stroke-width="0.5"/>
<rect x="298" y="103" width="71" height="30" fill="#f5f7fc" stroke="#d22828" stroke-width="0.5"/>
<rect x="298" y="139" width="71" height="30" fill="#f5f7fc" stroke="#d22828" stroke-width="0.5"/>
</svg>